<?xml version="1.0" encoding="utf-8"?>
<svg viewBox="12.63 15.288 14.741 13.08" xmlns="http://www.w3.org/2000/svg">
  <path fill-rule="evenodd" d="M 14.615 25.88 C 14.615 25.604 14.839 25.38 15.115 25.38 L 25.115 25.38 C 25.5 25.38 25.741 25.797 25.548 26.13 C 25.459 26.285 25.294 26.38 25.115 26.38 L 15.115 26.38 C 14.839 26.38 14.615 26.156 14.615 25.88 M 14.615 21.88 C 14.615 21.604 14.839 21.38 15.115 21.38 L 25.115 21.38 C 25.5 21.38 25.741 21.797 25.548 22.13 C 25.459 22.285 25.294 22.38 25.115 22.38 L 15.115 22.38 C 14.839 22.38 14.615 22.156 14.615 21.88 M 14.615 17.88 C 14.615 17.604 14.839 17.38 15.115 17.38 L 25.115 17.38 C 25.5 17.38 25.741 17.797 25.548 18.13 C 25.459 18.285 25.294 18.38 25.115 18.38 L 15.115 18.38 C 14.839 18.38 14.615 18.156 14.615 17.88" style="fill: rgb(248, 160, 220);"/>
</svg>